# xmcd CD database file
#
# Track frame offsets:
#	150
#	13115
#	25340
#	37697
#	48192
#	58610
#	69997
#	85102
#	98202
#	111367
#	123675
#	133660
#	144007
#	161500
#	169362
#
# Disc length: 2465 seconds
#
# Revision: 1
# Processed by: cddbd v1.5.1PL0 Copyright (c) Steve Scherf et al.
# Submitted via: CDex 1.51
#
DISCID=c2099f0f
DTITLE=Dolly Parton and Kenny Rogers - Together for ever
DYEAR=2001
DGENRE=Country
TTITLE0=Ruby don't take your love to town
TTITLE1=Two little orphans
TTITLE2=Rueben james
TTITLE3=Honky tonk angels
TTITLE4=Ticket to nowhere
TTITLE5=Making believe
TTITLE6=For the good times
TTITLE7=Little blossom
TTITLE8=Sleep comes easy
TTITLE9=Letter to heaven
TTITLE10=Girl left alone
TTITLE11=Release me
TTITLE12=Something's burning
TTITLE13=Puppy love
TTITLE14=My washington woman
EXTD=YEAR: 2001
EXTT0=
EXTT1=
EXTT2=
EXTT3=
EXTT4=
EXTT5=
EXTT6=
EXTT7=
EXTT8=
EXTT9=
EXTT10=
EXTT11=
EXTT12=
EXTT13=
EXTT14=
PLAYORDER=
